<svg xmlns="http://www.w3.org/2000/svg" width="152" height="44" viewBox="0 0 152 44">
    <g fill="#A7ADB3" fill-rule="nonzero">
        <path d="M42.462 23.048c2.44-1.607 3.696-4.051 3.696-7.264V12.99c0-6.355-2.998-9.498-10.877-9.498H2.23c-1.185 0-1.743.559-1.743 1.746v6.076l9.483.07h23.497c2.998 0 4.253 1.118 4.253 3.422v1.956c0 2.235-1.185 3.352-4.95 3.352H9.273l-8.785-.07v21.79c0 1.188.558 1.747 1.743 1.747h34.026c7.6 0 10.11-3.841 10.11-9.918v-3.352c0-3.213-1.255-5.657-3.905-7.263zm-4.74 9.289c0 2.444-1.186 3.492-4.254 3.492H10.04c-.488 0-.767-.21-.767-.769v-8.52h23.498c3.765 0 5.02 1.257 5.02 3.631v2.166h-.07zM55.92.698H50.34c-.836 0-1.255.42-1.255 1.258v40.507c0 .839.419 1.258 1.255 1.258h5.578c.837 0 1.255-.42 1.255-1.258V1.956c0-.839-.418-1.258-1.255-1.258zM67.354.559h-5.578c-.837 0-1.325.419-1.325 1.257v5.447c0 .839.488 1.327 1.325 1.327h5.578c.837 0 1.255-.419 1.255-1.327V1.816c0-.838-.418-1.257-1.255-1.257zm0 11.663h-5.578c-.837 0-1.255.49-1.255 1.327v28.914c0 .839.418 1.258 1.255 1.258h5.578c.837 0 1.255-.42 1.255-1.258V13.55c0-.838-.418-1.327-1.255-1.327zM101.589 24.794H82.275c-2.37 0-3.137-.908-3.137-2.445v-.838c0-1.676.836-2.584 3.137-2.584h25.868c.697 0 1.046-.35 1.046-1.048v-4.61c0-.698-.349-1.047-1.046-1.047h-27.96c-6.763 0-8.994 3.073-8.994 7.892v2.515c0 5.028 2.51 7.752 8.925 7.752h19.244c2.37 0 3.207.908 3.207 2.444v1.537c0 1.955-.837 2.794-3.207 2.794H72.235c-.697 0-1.046.349-1.046 1.047v4.61c0 .698.349 1.047 1.046 1.047h29.354c6.763 0 8.994-3.003 8.994-8.031v-3.213c0-5.029-2.51-7.822-8.994-7.822zM142.448 24.794h-19.314c-2.37 0-3.138-.908-3.138-2.445v-.838c0-1.676.837-2.584 3.138-2.584h25.868c.697 0 1.046-.35 1.046-1.048v-4.61c0-.698-.349-1.047-1.046-1.047h-27.96c-6.763 0-8.994 3.073-8.994 7.892v2.515c0 5.028 2.51 7.752 8.924 7.752h19.245c2.37 0 3.207.908 3.207 2.444v1.537c0 1.955-.837 2.794-3.207 2.794h-27.193c-.697 0-1.046.349-1.046 1.047v4.61c0 .698.349 1.047 1.046 1.047h29.354c6.763 0 8.994-3.003 8.994-8.031v-3.213c0-5.029-2.51-7.822-8.924-7.822z"/>
    </g>
</svg>
